<?xml version="1.0" encoding="utf-8"?>
<!-- Generator: Adobe Illustrator 23.0.6, SVG Export Plug-In . SVG Version: 6.00 Build 0)  -->
<svg version="1.1" id="icons" xmlns="http://www.w3.org/2000/svg" xmlns:xlink="http://www.w3.org/1999/xlink" x="0px" y="0px"
	 viewBox="0 0 86.8 81.9" style="enable-background:new 0 0 86.8 81.9;" xml:space="preserve">
<style type="text/css">
	.st0{fill:#FFFFFF;}
	.st1{fill:#EB6895;}
</style>
<polygon class="st0" points="13,17 69,24 72,64 19,73 "/>
<path class="st1" d="M73.8,19.6L6,9.4l7.1,70.9l66.5-12.4L73.8,19.6z M24.5,29.4c0.1,0,0.1,0,0.2,0s0.3-0.1,0.4-0.1h35
	c0.2,0,0.3,0,0.4,0.1c0.1,0,0.1,0,0.2,0l0.4,0.1L42.5,45.4l-0.1-0.1L24,29.5L24.5,29.4z M22,56.4c0-0.1,0-0.1,0-0.2
	c0-0.1-0.1-0.3-0.1-0.4V32.4c0-0.3,0.1-0.6,0.2-0.9l0.1-0.3l0.3,0.2L35,42.2L22.1,56.8L22,56.4z M60.9,58.7
	c-0.3,0.1-0.6,0.2-0.9,0.2H25c-0.3,0-0.6-0.1-0.9-0.2l-0.3-0.1l0.2-0.3l12.8-14.6l4.9,4.2c0.4,0.4,1.2,0.4,1.6,0l4.9-4.2l0.1,0.2
	l12.9,14.7L60.9,58.7z M63.2,55.8c0,0.2,0,0.3-0.1,0.4c0,0.1,0,0.1,0,0.2L63,56.8L50.1,42.2l12.8-10.9l0.1,0.3
	c0.1,0.3,0.2,0.6,0.2,0.9C63.2,32.5,63.2,55.8,63.2,55.8z"/>
</svg>
