<?xml version="1.0" encoding="utf-8"?>
<!-- Generator: Adobe Illustrator 23.0.6, SVG Export Plug-In . SVG Version: 6.00 Build 0)  -->
<svg version="1.1" id="icons" xmlns="http://www.w3.org/2000/svg" xmlns:xlink="http://www.w3.org/1999/xlink" x="0px" y="0px"
	 viewBox="0 0 86.8 81.9" style="enable-background:new 0 0 86.8 81.9;" xml:space="preserve">
<style type="text/css">
	.st0{fill:#FFFFFF;}
	.st1{fill-rule:evenodd;clip-rule:evenodd;fill:#646462;}
</style>
<polygon class="st0" points="21,25 67,15 73,74 20,64 "/>
<path class="st1" d="M71.9,9.4l-54.5,8l-2.7,52.3L79,80.4L71.9,9.4z M50.5,59.2c-0.9,0.2-1.2-0.4-1.2-0.9c0-0.6,0-2.5,0-4.9
	c0-1.7-0.6-2.7-1.2-3.3c4-0.4,8.1-1.9,8.1-8.8c0-1.9-0.7-3.5-1.8-4.8c0.2-0.5,0.8-2.3-0.2-4.7c0,0-1.5-0.5-4.9,1.8
	c-1.4-0.4-2.9-0.6-4.5-0.6c-1.5,0-3,0.2-4.5,0.6c-3.4-2.3-4.9-1.8-4.9-1.8c-1,2.5-0.4,4.3-0.2,4.7c-1.1,1.2-1.8,2.8-1.8,4.8
	c0,6.8,4.2,8.3,8.1,8.8c-0.5,0.4-1,1.2-1.1,2.4c-1,0.5-3.6,1.2-5.2-1.5c0,0-0.9-1.7-2.7-1.8c0,0-1.7,0-0.1,1.1c0,0,1.2,0.5,2,2.6
	c0,0,1,3.5,6,2.4c0,1.5,0,2.6,0,3c0,0.5-0.3,1-1.2,0.9c-7.1-2.4-12.2-9-12.2-16.9c0-9.8,8-17.8,17.8-17.8s17.8,8,17.8,17.8
	C62.6,50.2,57.5,56.9,50.5,59.2z"/>
</svg>
