<?xml version="1.0" encoding="utf-8"?>
<!-- Generator: Adobe Illustrator 23.0.6, SVG Export Plug-In . SVG Version: 6.00 Build 0)  -->
<svg version="1.1" id="Layer_1" xmlns="http://www.w3.org/2000/svg" xmlns:xlink="http://www.w3.org/1999/xlink" x="0px" y="0px"
	 viewBox="0 0 1280.1 580.5" style="enable-background:new 0 0 1280.1 580.5;" xml:space="preserve">
<style type="text/css">
	.st0{fill:#1C3E7C;}
	.st1{fill:#67B9E8;}
	.st2{fill:#3756A2;}
	.st3{fill:#F3E02D;}
	.st4{fill:#656563;}
	.st5{fill:#AEB5B1;}
	.st6{fill:#EB6896;}
	.st7{fill:#D2EAEE;}
	.st8{fill:#FFFFFF;}
</style>
<path class="st0" d="M78.7,72L0,128.6l93.1,122.9l50.9-54.7L78.7,72z"/>
<path class="st1" d="M144,196.8l-50.9,54.7l211.2-28.8l53.8-51.8L144,196.8z"/>
<path class="st2" d="M229.5,293.8l25.9,95l102.7-217.9L229.5,293.8z"/>
<path class="st3" d="M454.4,282.9L289,316.8l-33.6,72L506,374.4L454.4,282.9z"/>
<path class="st0" d="M408,200.7l98,173.7l0.9-139.2L408,200.7z"/>
<path class="st1" d="M560.7,10.6L697,198.7l-8.6,102.8L408,200.7L560.7,10.6z"/>
<path class="st4" d="M833.3,0L705.6,84.5l-17.2,217l96-76.8L833.3,0z"/>
<path class="st5" d="M884.2,169L827.6,25.9l-43.2,198.8l70.1,151.6L884.2,169z"/>
<path class="st6" d="M1018.6,36.5L884.2,169l-29.7,207.3L970.6,264L1018.6,36.5z"/>
<path class="st7" d="M1134.8,135.4l-116.2-98.9l-48,227.5l164.2,106.6V135.4z"/>
<path class="st0" d="M1161.7,114.2l-26.9,21.2v235.2l145-97.9L1161.7,114.2z"/>
<path class="st8" d="M36,569.4h12v-62.2H36v-9.5h65.7v22.8H90.9v-13.3H59.7v26.1h33.6v9.5H59.7v26.7h31.5v-13.7h10.9V579H36
	L36,569.4z M131.5,507.2H121v-9.5h35v9.5h-12.1l21.7,57.8l21.7-57.8h-12.1v-9.5h34.7v9.5h-10.5l-28,71.7h-11.9L131.5,507.2z
	 M224.9,538.4c0-24.5,16.9-42.3,41.7-42.3s41.7,17.7,41.7,42.3s-16.9,42.1-41.7,42.1C241.9,580.5,224.9,562.9,224.9,538.4
	L224.9,538.4z M296.4,538.4c0-19.7-12.3-32.4-29.7-32.4c-17.3,0-29.6,12.8-29.6,32.4c0,19.7,12.1,32.3,29.6,32.3
	C284,570.6,296.4,558,296.4,538.4z M330.5,569.4h12v-62.2h-12v-9.5h37.3v9.5h-13.6v62.2h31.5v-14.5h10.9v24h-66.1L330.5,569.4z
	 M413.7,507.2h-10.5v-9.5h35.1v9.5h-12.1l21.7,57.8l21.7-57.8h-12.1v-9.5h34.7v9.5h-10.5l-28,71.7h-11.9L413.7,507.2z M509.7,569.4
	h12v-62.2h-12v-9.5h65.7v22.8h-10.8v-13.3h-31.2v26.1H567v9.5h-33.6v26.7h31.5v-13.7h10.9V579h-66.1L509.7,569.4z M600.5,569.4h12
	v-62.2h-12v-9.5h37.6c26.4,0,43.1,14.9,43.1,40.7c0,25.6-16.7,40.5-43.1,40.5h-37.6V569.4z M638.1,569.4c19.9,0,31.1-11.5,31.1-31.1
	c0-19.7-11.2-31.2-31.1-31.2h-13.9v62.2L638.1,569.4L638.1,569.4z M748.8,574.8h13.7v-72.9h-13.7v-4.1H784
	c16.5,0,28.9,6.8,28.9,20.4c0,8.3-4.4,16.1-16.9,19.2c14.8,2.3,20.5,11.1,20.5,20.4c0,14.3-13.2,21.2-30.1,21.2h-37.6L748.8,574.8z
	 M782.1,535.6c16.1,0,26.1-5.9,26.1-17.1s-9.9-16.7-24.3-16.7h-16.8v33.7L782.1,535.6L782.1,535.6z M786.3,574.8
	c15.3,0,25.6-5.7,25.6-17.3c0-12.1-10.9-17.9-26.3-17.9h-18.4v35.2H786.3z M840.9,574.6h13.7V502h-13.7v-4.3h32.3v4.3h-13.7v72.6
	h13.7v4.3h-32.3V574.6z M895.9,574.6h13.7V502h-13.7v-4.3h18.7l53.2,73.4V502H954v-4.3h32v4.3h-13.7v76.9h-4.4l-53.7-74.1v69.8h13.7
	v4.3h-32V574.6z M999.9,574.6h12.1l29.3-72.6h-12.7v-4.3h20.1l30.9,76.9h12.1v4.3h-31.6v-4.3h14.5l-9.7-24h-38.5l-9.6,24h14.5v4.3
	h-31.6v-4.3H999.9z M1063.3,546.2l-17.5-43.8l-17.6,43.8H1063.3z M1108.8,574.6h13.7V502h-13.7v-4.3h35.9c10.8,0,30.9,3.1,30.9,23.5
	c0,13.5-8.8,20.7-20.7,23.2l16.4,30.3h13.5v4.3h-16.4l-18.3-33.7c-1.9,0.3-3.6,0.3-5.5,0.3h-17.3v29.2h13.7v4.3h-32.3v-4.5H1108.8z
	 M1144.7,541.2c17.1,0,26-6.8,26-19.6s-8.9-19.6-26-19.6h-17.3v39.2H1144.7z M1221.5,574.6h13.7v-27.1l-27.9-45.6H1195v-4.3h31.7
	v4.3h-14.1l24.9,41.3l25.1-41.3h-14v-4.3h31.5v4.3h-12.3l-27.9,45.6v27.1h13.7v4.3h-32.3v-4.3H1221.5z"/>
</svg>
