<?xml version="1.0" encoding="utf-8"?>
<!-- Generator: Adobe Illustrator 24.1.2, SVG Export Plug-In . SVG Version: 6.00 Build 0)  -->
<svg version="1.1" id="Layer_1" xmlns="http://www.w3.org/2000/svg" xmlns:xlink="http://www.w3.org/1999/xlink" x="0px" y="0px"
	 viewBox="0 0 1280.1 580.5" style="enable-background:new 0 0 1280.1 580.5;" xml:space="preserve">
<style type="text/css">
	.st0{fill:#1C3E7C;}
	.st1{fill:#67B9E8;}
	.st2{fill:#3756A2;}
	.st3{fill:#F3E02D;}
	.st4{fill:#656563;}
	.st5{fill:#AEB5B1;}
	.st6{fill:#EB6896;}
	.st7{fill:#D2EAEE;}
	.st8{fill:#48565E;}
</style>
<path class="st0" d="M91.3,76.9l-76.9,55.3l91,120.1l49.8-53.5L91.3,76.9z"/>
<path class="st1" d="M155.1,198.9l-49.8,53.5l206.5-28.2l52.6-50.6L155.1,198.9z"/>
<path class="st2" d="M238.7,293.7l25.3,92.9l100.4-213L238.7,293.7z"/>
<path class="st3" d="M458.6,283.1l-161.7,33.1L264,386.6l245-14.1L458.6,283.1z"/>
<path class="st0" d="M413.2,202.7L509,372.5l0.9-136.1L413.2,202.7z"/>
<path class="st1" d="M562.5,16.9l133.2,183.9l-8.4,100.5l-274.1-98.5L562.5,16.9z"/>
<path class="st4" d="M829,6.5L704.1,89.1l-16.8,212.1l93.9-75.1L829,6.5z"/>
<path class="st5" d="M878.7,171.7L823.4,31.8l-42.2,194.3l68.5,148.2L878.7,171.7z"/>
<path class="st6" d="M1010.1,42.2L878.7,171.7l-29,202.7l113.5-109.8L1010.1,42.2z"/>
<path class="st7" d="M1123.7,138.9l-113.6-96.7l-46.9,222.4l160.5,104.2V138.9z"/>
<path class="st0" d="M1150,118.1l-26.3,20.7v229.9l141.8-95.7L1150,118.1z"/>
<path class="st8" d="M49.5,563.1h11.7v-60.8H49.5v-9.3h64.2v22.3h-10.6v-13H72.7v25.5h32.8v9.3H72.7v26.1h30.8v-13.4h10.7v22.7H49.5
	L49.5,563.1z M142.9,502.3h-10.3v-9.3h34.2v9.3H155l21.2,56.5l21.2-56.5h-11.8v-9.3h33.9v9.3h-10.3l-27.4,70.1h-11.6L142.9,502.3z
	 M234.2,532.8c0-24,16.5-41.4,40.8-41.4s40.8,17.3,40.8,41.4S299.2,574,275,574C250.8,574,234.2,556.8,234.2,532.8L234.2,532.8z
	 M304.1,532.8c0-19.3-12-31.7-29-31.7c-16.9,0-28.9,12.5-28.9,31.7c0,19.3,11.8,31.6,28.9,31.6C292,564.3,304.1,552,304.1,532.8z
	 M337.4,563.1h11.7v-60.8h-11.7v-9.3h36.5v9.3h-13.3v60.8h30.8V549h10.7v23.5h-64.6L337.4,563.1z M418.8,502.3h-10.3v-9.3h34.3v9.3
	H431l21.2,56.5l21.2-56.5h-11.8v-9.3h33.9v9.3h-10.3l-27.4,70.1h-11.6L418.8,502.3z M512.6,563.1h11.7v-60.8h-11.7v-9.3h64.2v22.3
	h-10.6v-13h-30.5v25.5h32.8v9.3h-32.8v26.1h30.8v-13.4h10.7v22.7h-64.6V563.1z M601.4,563.1h11.7v-60.8h-11.7v-9.3h36.8
	c25.8,0,42.1,14.6,42.1,39.8c0,25-16.3,39.6-42.1,39.6h-36.8V563.1z M638.1,563.1c19.5,0,30.4-11.2,30.4-30.4
	c0-19.3-10.9-30.5-30.4-30.5h-13.6v60.8L638.1,563.1L638.1,563.1z M746.4,568.4h13.4v-71.3h-13.4v-4h34.4c16.1,0,28.3,6.6,28.3,19.9
	c0,8.1-4.3,15.7-16.5,18.8c14.5,2.2,20,10.9,20,19.9c0,14-12.9,20.7-29.4,20.7h-36.8L746.4,568.4z M778.9,530.1
	c15.7,0,25.5-5.8,25.5-16.7c0-10.9-9.7-16.3-23.8-16.3h-16.4V530L778.9,530.1L778.9,530.1z M783,568.4c15,0,25-5.6,25-16.9
	c0-11.8-10.7-17.5-25.7-17.5h-18v34.4H783z M836.4,568.2h13.4v-71h-13.4v-4.2H868v4.2h-13.4v71H868v4.2h-31.6V568.2z M890.2,568.2
	h13.4v-71h-13.4v-4.2h18.3l52,71.8v-67.6H947v-4.2h31.3v4.2h-13.4v75.2h-4.3L908.1,500v68.2h13.4v4.2h-31.3V568.2z M991.8,568.2
	h11.8l28.6-71h-12.4v-4.2h19.6l30.2,75.2h11.8v4.2h-30.9v-4.2h14.2l-9.5-23.5h-37.6l-9.4,23.5h14.2v4.2h-30.9v-4.2H991.8z
	 M1053.8,540.5l-17.1-42.8l-17.2,42.8H1053.8z M1098.3,568.2h13.4v-71h-13.4v-4.2h35.1c10.6,0,30.2,3,30.2,23
	c0,13.2-8.6,20.2-20.2,22.7l16,29.6h13.2v4.2h-16l-17.9-32.9c-1.9,0.3-3.5,0.3-5.4,0.3h-16.9v28.5h13.4v4.2h-31.6L1098.3,568.2
	L1098.3,568.2z M1133.4,535.6c16.7,0,25.4-6.6,25.4-19.2c0-12.5-8.7-19.2-25.4-19.2h-16.9v38.3H1133.4z M1208.5,568.2h13.4v-26.5
	l-27.3-44.6h-12V493h31v4.2h-13.8l24.3,40.4l24.5-40.4H1235V493h30.8v4.2h-12l-27.3,44.6v26.5h13.4v4.2h-31.6v-4.2H1208.5z"/>
</svg>
