<svg enable-background="new 0 0 1280.1 580.5" viewBox="0 0 1280.1 580.5" xmlns="http://www.w3.org/2000/svg"><path d="m78.7 72-78.7 56.6 93.1 122.9 50.9-54.7z" fill="#1c3e7c"/><path d="m144 196.8-50.9 54.7 211.2-28.8 53.8-51.8z" fill="#67b9e8"/><path d="m229.5 293.8 25.9 95 102.7-217.9z" fill="#3756a2"/><path d="m454.4 282.9-165.4 33.9-33.6 72 250.6-14.4z" fill="#f3e02d"/><path d="m408 200.7 98 173.7.9-139.2z" fill="#1c3e7c"/><path d="m560.7 10.6 136.3 188.1-8.6 102.8-280.4-100.8z" fill="#67b9e8"/><path d="m833.3 0-127.7 84.5-17.2 217 96-76.8z" fill="#656563"/><path d="m884.2 169-56.6-143.1-43.2 198.8 70.1 151.6z" fill="#aeb5b1"/><path d="m1018.6 36.5-134.4 132.5-29.7 207.3 116.1-112.3z" fill="#eb6896"/><path d="m1134.8 135.4-116.2-98.9-48 227.5 164.2 106.6z" fill="#d2eaee"/><path d="m1161.7 114.2-26.9 21.2v235.2l145-97.9z" fill="#1c3e7c"/><path d="m36 569.4h12v-62.2h-12v-9.5h65.7v22.8h-10.8v-13.3h-31.2v26.1h33.6v9.5h-33.6v26.7h31.5v-13.7h10.9v23.2h-66.1zm95.5-62.2h-10.5v-9.5h35v9.5h-12.1l21.7 57.8 21.7-57.8h-12.1v-9.5h34.7v9.5h-10.5l-28 71.7h-11.9zm93.4 31.2c0-24.5 16.9-42.3 41.7-42.3s41.7 17.7 41.7 42.3-16.9 42.1-41.7 42.1c-24.7 0-41.7-17.6-41.7-42.1zm71.5 0c0-19.7-12.3-32.4-29.7-32.4-17.3 0-29.6 12.8-29.6 32.4 0 19.7 12.1 32.3 29.6 32.3 17.3-.1 29.7-12.7 29.7-32.3zm34.1 31h12v-62.2h-12v-9.5h37.3v9.5h-13.6v62.2h31.5v-14.5h10.9v24h-66.1zm83.2-62.2h-10.5v-9.5h35.1v9.5h-12.1l21.7 57.8 21.7-57.8h-12.1v-9.5h34.7v9.5h-10.5l-28 71.7h-11.9zm96 62.2h12v-62.2h-12v-9.5h65.7v22.8h-10.8v-13.3h-31.2v26.1h33.6v9.5h-33.6v26.7h31.5v-13.7h10.9v23.2h-66.1zm90.8 0h12v-62.2h-12v-9.5h37.6c26.4 0 43.1 14.9 43.1 40.7 0 25.6-16.7 40.5-43.1 40.5h-37.6zm37.6 0c19.9 0 31.1-11.5 31.1-31.1 0-19.7-11.2-31.2-31.1-31.2h-13.9v62.2h13.9zm110.7 5.4h13.7v-72.9h-13.7v-4.1h35.2c16.5 0 28.9 6.8 28.9 20.4 0 8.3-4.4 16.1-16.9 19.2 14.8 2.3 20.5 11.1 20.5 20.4 0 14.3-13.2 21.2-30.1 21.2h-37.6zm33.3-39.2c16.1 0 26.1-5.9 26.1-17.1s-9.9-16.7-24.3-16.7h-16.8v33.7h15zm4.2 39.2c15.3 0 25.6-5.7 25.6-17.3 0-12.1-10.9-17.9-26.3-17.9h-18.4v35.2zm54.6-.2h13.7v-72.6h-13.7v-4.3h32.3v4.3h-13.7v72.6h13.7v4.3h-32.3zm55 0h13.7v-72.6h-13.7v-4.3h18.7l53.2 73.4v-69.1h-13.8v-4.3h32v4.3h-13.7v76.9h-4.4l-53.7-74.1v69.8h13.7v4.3h-32zm104 0h12.1l29.3-72.6h-12.7v-4.3h20.1l30.9 76.9h12.1v4.3h-31.6v-4.3h14.5l-9.7-24h-38.5l-9.6 24h14.5v4.3h-31.6v-4.3zm63.4-28.4-17.5-43.8-17.6 43.8zm45.5 28.4h13.7v-72.6h-13.7v-4.3h35.9c10.8 0 30.9 3.1 30.9 23.5 0 13.5-8.8 20.7-20.7 23.2l16.4 30.3h13.5v4.3h-16.4l-18.3-33.7c-1.9.3-3.6.3-5.5.3h-17.3v29.2h13.7v4.3h-32.3v-4.5zm35.9-33.4c17.1 0 26-6.8 26-19.6s-8.9-19.6-26-19.6h-17.3v39.2zm76.8 33.4h13.7v-27.1l-27.9-45.6h-12.3v-4.3h31.7v4.3h-14.1l24.9 41.3 25.1-41.3h-14v-4.3h31.5v4.3h-12.3l-27.9 45.6v27.1h13.7v4.3h-32.3v-4.3z" fill="#48565e"/></svg>