<?xml version="1.0" encoding="utf-8"?>
<!-- Generator: Adobe Illustrator 23.0.6, SVG Export Plug-In . SVG Version: 6.00 Build 0)  -->
<svg version="1.1" id="icons" xmlns="http://www.w3.org/2000/svg" xmlns:xlink="http://www.w3.org/1999/xlink" x="0px" y="0px"
	 viewBox="0 0 86.8 81.9" style="enable-background:new 0 0 86.8 81.9;" xml:space="preserve">
<style type="text/css">
	.st0{fill:#FFFFFF;}
	.st1{fill:#68B6E8;}
</style>
<polygon class="st0" points="22,7 12,72 70,63 75,22 "/>
<path class="st1" d="M17.9,3.1L6.4,78.9L77.8,70l2.7-52.3L17.9,3.1z M62.6,33.9c0,0.3,0,0.7,0,1.1c0,1.6-0.2,3.3-0.6,4.9
	c-2.1,9.3-10,18.3-23,18.3c-4.7,0-9-1.4-12.7-3.7c0.7,0.1,1.3,0.1,2,0.1c3.9,0,7.5-1.3,10.3-3.5c-3.6-0.1-6.7-2.4-7.7-5.7
	c0.5,0.1,1,0.1,1.6,0.1c0.8,0,1.5-0.1,2.2-0.3c-2.8-0.6-5.1-2.5-6.1-5c-0.4-0.9-0.6-1.9-0.6-3v-0.1c1.1,0.6,2.4,1,3.8,1
	c-2.2-1.5-3.7-4-3.7-6.8c0-1.5,0.4-2.9,1.1-4.1c4.1,4.9,10.2,8.2,17.1,8.5c-0.2-0.4-0.3-1-0.3-1.7c0-4.5,3.7-8.2,8.3-8.2
	c2.4,0,4.5,1,6,2.6c1.9-0.4,3.7-1,5.3-2c-0.6,2-2,3.6-3.7,4.6c1.7-0.2,3.3-0.6,4.8-1.3C65.6,31.3,64.2,32.8,62.6,33.9z"/>
</svg>
