<?xml version="1.0" encoding="utf-8"?>
<!-- Generator: Adobe Illustrator 23.0.3, SVG Export Plug-In . SVG Version: 6.00 Build 0)  -->
<svg version="1.1" id="Layer_1" xmlns="http://www.w3.org/2000/svg" xmlns:xlink="http://www.w3.org/1999/xlink" x="0px" y="0px"
	 viewBox="0 0 74.9 60.9" style="enable-background:new 0 0 74.9 60.9;" xml:space="preserve">
<style type="text/css">
	.st0{fill:#FFFFFF;}
</style>
<path class="st0" d="M72.8,1.1c-3,1.8-6.3,3-9.8,3.7C60.3,1.9,56.3,0,51.9,0c-8.5,0-15.4,6.9-15.4,15.4c0,1.2,0.1,2.4,0.4,3.5
	C24.1,18.2,12.8,12.1,5.2,2.8c-1.3,2.3-2.1,4.9-2.1,7.7c0,5.3,2.7,10,6.8,12.8c-2.5-0.1-4.9-0.8-7-1.9c0,0.1,0,0.1,0,0.2
	C3,29,8.3,35.3,15.3,36.7c-1.3,0.4-2.6,0.5-4,0.5c-1,0-2-0.1-2.9-0.3c2,6.1,7.6,10.5,14.4,10.7c-5.3,4.1-11.9,6.6-19.1,6.6
	c-1.2,0-2.5-0.1-3.7-0.2c6.8,4.4,14.9,6.9,23.6,6.9c28.3,0,43.7-23.4,43.7-43.7c0-0.7,0-1.3,0-2c3-2.2,5.6-4.9,7.7-8
	c-2.8,1.2-5.7,2-8.8,2.4C69.2,7.7,71.7,4.7,72.8,1.1z"/>
</svg>
